<svg xmlns="http://www.w3.org/2000/svg" viewBox="0 0 32 32">
  <!-- Arca de ladrillos (Simplificada para favicon) -->
  <path d="M4 14C4 8 10 4 16 4C22 4 28 8 28 14" fill="none" stroke="#2D1C1B" stroke-width="2.5" stroke-linecap="round" />
  <path d="M6 14L2 14M26 14L30 14M16 2L16 6" stroke="#2D1C1B" stroke-width="1.5" />
  
  <!-- Sombra del pollo asado -->
  <path d="M10 20C10 16 22 16 22 20C22 24 19 26 16 26C13 26 10 24 10 20Z" fill="#C4271B" />
  <path d="M22 19C24 19 26 21 24 23" stroke="#C4271B" stroke-width="1.5" fill="none" />
  
  <!-- Ladrillos inferiores -->
  <rect x="8" y="28" width="4" height="2" rx="0.5" fill="#2D1C1B" />
  <rect x="14" y="28" width="4" height="2" rx="0.5" fill="#2D1C1B" />
  <rect x="20" y="28" width="4" height="2" rx="0.5" fill="#2D1C1B" />
</svg>
